<?xml version="1.0" encoding="utf-8"?>
<!-- Generator: Adobe Illustrator 16.0.3, SVG Export Plug-In . SVG Version: 6.00 Build 0)  -->
<!DOCTYPE svg PUBLIC "-//W3C//DTD SVG 1.1//EN" "http://www.w3.org/Graphics/SVG/1.1/DTD/svg11.dtd">
<svg version="1.1" id="Calque_1" xmlns="http://www.w3.org/2000/svg" xmlns:xlink="http://www.w3.org/1999/xlink" x="0px" y="0px"
	 width="109px" height="35px" viewBox="0 0 109 35" enable-background="new 0 0 109 35" xml:space="preserve">
<g>
	<g>
		<path fill="#282929" d="M8.271,9.565c-1.739,0-3.187,0.687-4.004,1.851H4.215V5.071H0v19.614h3.451L3.82,22.73h0.079
			c0.843,1.349,2.134,2.273,4.479,2.273c3.977,0,6.479-3.199,6.479-7.509C14.857,13.055,12.223,9.565,8.271,9.565z M7.297,20.959
			c-1.923,0-3.24-1.269-3.24-3.675c0-2.247,1.291-3.833,3.188-3.833c1.896,0,3.266,1.612,3.266,3.859S9.22,20.959,7.297,20.959z
			 M24.21,9.565c-1.343,0-2.555,0.687-3.345,2.272h-0.079l-0.237-1.956h-3.582v14.804h4.346V18.13c0-2.67,1-4.256,2.739-4.256
			c0.922,0,1.581,0.449,2.002,0.899h0.211l0.632-3.993C26.345,9.962,25.238,9.565,24.21,9.565z M30.692,2.666
			c-1.764,0-2.739,1.084-2.739,2.696c0,1.586,0.975,2.749,2.739,2.749c1.766,0,2.74-1.163,2.74-2.749
			C33.432,3.75,32.458,2.666,30.692,2.666z M28.479,24.686h4.347V9.882h-4.347V24.686z M42.099,9.565
			c-4.056,0-7.165,3.015-7.165,7.798c0,4.865,3.135,7.641,7.456,7.641c2.686,0,4.688-0.899,5.584-1.612l-1.396-3.649h-0.211
			c-0.895,0.688-2.16,1.429-4.056,1.429c-1.844,0-3.029-0.979-3.109-2.406h9.773c0,0,0.026-0.873,0.026-1.321
			C49,12.737,46.262,9.565,42.099,9.565z M39.36,15.593c0.184-1.19,1.185-2.3,2.818-2.3c1.659,0,2.687,1.137,2.819,2.3H39.36z
			 M60.331,9.882h-3.583V8.376c0-0.66,0.264-1.137,1.106-1.137c0.737,0,1.37,0.423,1.765,0.819h0.211l0.686-3.887
			c-0.869-0.66-2.292-1.242-4.057-1.242c-2.371,0-4.057,1.242-4.057,4.177v2.775h-3.134v3.968h3.134v10.836h4.346V13.85h3.583V9.882
			z M61.912,19.478c-1.711,0-2.713,1.111-2.713,2.725c0,1.586,1.002,2.696,2.713,2.696c1.713,0,2.713-1.11,2.713-2.696
			C64.625,20.589,63.625,19.478,61.912,19.478z M84.383,9.565c-2.503,0-4.188,1.215-4.847,2.591h-0.079
			c-0.686-1.428-2.186-2.591-4.426-2.591c-1.818,0-3.239,0.687-4.24,2.272h-0.079l-0.237-1.956h-3.477v14.804h4.373v-7.375
			c0-2.273,0.815-3.859,2.66-3.859c1.369,0,2.16,0.74,2.16,3.066v8.168h4.346v-7.375c0-2.3,0.816-3.859,2.66-3.859
			c1.369,0,2.16,0.74,2.16,3.066v8.168h4.373v-9.834C89.73,13.293,88.914,9.565,84.383,9.565z M98.743,9.565
			c-4.057,0-7.165,3.015-7.165,7.798c0,4.865,3.135,7.641,7.455,7.641c2.687,0,4.688-0.899,5.584-1.612l-1.396-3.649h-0.211
			c-0.895,0.688-2.16,1.429-4.057,1.429c-1.844,0-3.028-0.979-3.107-2.406h9.773c0,0,0.025-0.873,0.025-1.321
			C105.645,12.737,102.905,9.565,98.743,9.565z M96.004,15.593c0.184-1.19,1.186-2.3,2.818-2.3c1.659,0,2.687,1.137,2.818,2.3
			H96.004z M108,0v35h1V0H108z"/>
	</g>
</g>
</svg>
